<?xml version="1.0" encoding="utf-8"?>
<!-- Generator: Adobe Illustrator 18.1.1, SVG Export Plug-In . SVG Version: 6.00 Build 0)  -->
<svg version="1.1" id="Layer_1" xmlns="http://www.w3.org/2000/svg" xmlns:xlink="http://www.w3.org/1999/xlink" x="0px" y="0px"
	 viewBox="0 0 50 50" enable-background="new 0 0 50 50" xml:space="preserve">
<g>
	<path fill="#FFFFFF" d="M39.9,4.4h-2.8V2.4c0-0.5-0.4-1-1-1c-0.5,0-1,0.4-1,1v1.9h-2.7V2.4c0-0.5-0.4-1-1-1c-0.5,0-1,0.4-1,1v1.9
		h-2.7V2.4c0-0.5-0.4-1-1-1c-0.5,0-1,0.4-1,1v1.9h-2.7V2.4c0-0.5-0.4-1-1-1c-0.5,0-1,0.4-1,1v1.9h-2.7V2.4c0-0.5-0.4-1-1-1
		c-0.5,0-1,0.4-1,1v1.9h-2.7V2.4c0-0.5-0.4-1-1-1c-0.5,0-1,0.4-1,1v1.9H9.1c-1.6,0-2.9,1.3-2.9,2.9V45c0,1.6,1.3,2.9,2.9,2.9h30.8
		c1.6,0,2.9-1.3,2.9-2.9V7.3C42.8,5.7,41.5,4.4,39.9,4.4z M9.1,45V14.5H30c0.5,0,1-0.4,1-1s-0.4-1-1-1H9.1V7.3h2.8v2
		c0,0.5,0.4,1,1,1c0.5,0,1-0.4,1-1v-2h2.7v2c0,0.5,0.4,1,1,1c0.5,0,1-0.4,1-1v-2h2.7v2c0,0.5,0.4,1,1,1c0.5,0,1-0.4,1-1v-2h2.7v2
		c0,0.5,0.4,1,1,1c0.5,0,1-0.4,1-1v-2h2.7v2c0,0.5,0.4,1,1,1c0.5,0,1-0.4,1-1v-2h2.7v2c0,0.5,0.4,1,1,1c0.5,0,1-0.4,1-1v-2h2.8v5.2
		h-4.4c-0.5,0-1,0.4-1,1s0.4,1,1,1h4.4V45H9.1z"/>
	<path fill="#FFFFFF" d="M35,20.9H23.1c-0.5,0-1,0.4-1,1c0,0.5,0.4,1,1,1H35c0.5,0,1-0.4,1-1C36,21.3,35.5,20.9,35,20.9z"/>
	<path fill="#FFFFFF" d="M17.7,20.9h-3.7c-0.5,0-1,0.4-1,1c0,0.5,0.4,1,1,1h3.7c0.5,0,1-0.4,1-1C18.6,21.3,18.2,20.9,17.7,20.9z"/>
	<path fill="#FFFFFF" d="M35,26H23.1c-0.5,0-1,0.4-1,1c0,0.5,0.4,1,1,1H35c0.5,0,1-0.4,1-1C36,26.5,35.5,26,35,26z"/>
	<path fill="#FFFFFF" d="M17.7,26h-3.7c-0.5,0-1,0.4-1,1c0,0.5,0.4,1,1,1h3.7c0.5,0,1-0.4,1-1C18.6,26.5,18.2,26,17.7,26z"/>
	<path fill="#FFFFFF" d="M35,31.4H23.1c-0.5,0-1,0.4-1,1c0,0.5,0.4,1,1,1H35c0.5,0,1-0.4,1-1C36,31.8,35.5,31.4,35,31.4z"/>
	<path fill="#FFFFFF" d="M17.7,31.4h-3.7c-0.5,0-1,0.4-1,1c0,0.5,0.4,1,1,1h3.7c0.5,0,1-0.4,1-1C18.6,31.8,18.2,31.4,17.7,31.4z"/>
	<path fill="#FFFFFF" d="M35,37.1H23.1c-0.5,0-1,0.4-1,1c0,0.5,0.4,1,1,1H35c0.5,0,1-0.4,1-1C36,37.5,35.5,37.1,35,37.1z"/>
	<path fill="#FFFFFF" d="M17.7,37.1h-3.7c-0.5,0-1,0.4-1,1c0,0.5,0.4,1,1,1h3.7c0.5,0,1-0.4,1-1C18.6,37.5,18.2,37.1,17.7,37.1z"/>
</g>
</svg>
