<?xml version="1.0" encoding="utf-8"?>
<!-- Generator: Adobe Illustrator 18.1.1, SVG Export Plug-In . SVG Version: 6.00 Build 0)  -->
<svg version="1.1" id="Layer_1" xmlns="http://www.w3.org/2000/svg" xmlns:xlink="http://www.w3.org/1999/xlink" x="0px" y="0px"
	 viewBox="0 0 100 100" enable-background="new 0 0 100 100" xml:space="preserve">
<path fill="#FFFFFF" d="M95.8,33.8L52.3,14.4c-0.8-0.4-1.7-0.5-2.5-0.5c-0.9,0-1.7,0.2-2.5,0.5L3.7,33.8C1.4,34.8,0,37,0,39.5
	c0,2.2,1.2,4.2,3.1,5.4c0.6,0.7,1.2,1.2,1.8,1.6c1.2,0.9,1.5,1.2,1.5,1.9c0,0.6-0.3,1-1.5,1.9c-1.2,0.9-3.1,2.4-3.1,5.2
	s1.9,4.2,3.1,5.2c0.9,0.7,1.3,1,1.4,1.4c-1.9,0.2-3.5,1.6-3.8,3.6l-1.1,8.6c-0.2,1.2,0.2,2.4,1,3.3c0.8,0.9,1.9,1.4,3.1,1.4h6
	c1.2,0,2.3-0.5,3.1-1.4c0.8-0.9,1.2-2.1,1-3.3l-1.1-8.6c-0.3-2-2-3.6-4-3.6c-0.2-2.5-1.9-3.8-3.1-4.7c-1.2-0.9-1.5-1.2-1.5-1.9
	c0-0.6,0.3-1,1.5-1.9c1.2-1,3.1-2.4,3.1-5.2c0,0,0-0.1,0-0.1l7.4,3.3c0,0.3-0.1,0.5-0.1,0.8v16.3c0,11.8,22.6,13.1,32.4,13.1
	c9.7,0,32.4-1.3,32.4-13.1V51.9c0-0.3,0-0.6-0.1-0.8l13.3-5.9c2.2-1,3.7-3.2,3.7-5.7C99.4,37,98,34.8,95.8,33.8z M5.5,74.6L6.6,66
	h3.8l1.1,8.6H5.5z M76.3,61.6c-1.1,1.4-3.8,3-8.4,4.3c-0.8,0.2-1.7,0.5-2.6,0.7c-1.1,0.3-1.8,1.4-1.6,2.5c0.2,1,1.1,1.6,2,1.6
	c0.2,0,0.3,0,0.5-0.1c1-0.2,2-0.5,2.9-0.7c2.9-0.8,5.3-1.8,7.2-3v1.6c0,3.8-11.7,6.9-26.1,6.9c-14.4,0-26.1-3.1-26.1-6.9v-1.7
	c5.7,3.6,16,5.5,26.3,5.5c2.4,0,4.8-0.1,7.1-0.3c1.1-0.1,2-1.1,1.9-2.2c-0.1-1.1-1.1-2-2.2-1.9c-2.2,0.2-4.4,0.3-6.7,0.3
	c-14.6,0-24.4-3.7-26.3-6.8v-7.1l23.1,10.3c0.8,0.4,1.7,0.5,2.5,0.5c0.9,0,1.7-0.2,2.5-0.5l24.1-10.7V61.6z M49.7,58.9L6.2,39.5
	L49.7,20l43.5,19.4L49.7,58.9z"/>
</svg>
