<?xml version="1.0" encoding="utf-8"?>
<!-- Generator: Adobe Illustrator 18.1.1, SVG Export Plug-In . SVG Version: 6.00 Build 0)  -->
<svg version="1.1" id="Layer_1" xmlns="http://www.w3.org/2000/svg" xmlns:xlink="http://www.w3.org/1999/xlink" x="0px" y="0px"
	 viewBox="0 0 100 100" enable-background="new 0 0 100 100" xml:space="preserve">
<g>
	<path fill="#FFFFFF" d="M21.2,38.2c1.7,0,3.1-1.4,3.1-3.1v-2.4c1.1-1.6,9.6-5,25.5-5c15.9,0,24.4,3.5,25.5,5V35
		c0,1.7,1.4,3.1,3.1,3.1s3.1-1.4,3.1-3.1v-2.6c0-8.1-16.9-10.7-28.8-11v-2.9c3.6-1.3,6.2-4.8,6.2-8.8c0-5.2-4.2-9.4-9.4-9.4
		c-5.2,0-9.4,4.2-9.4,9.4c0,4.1,2.6,7.5,6.2,8.8v2.9c-11.9,0.4-28.5,3-28.5,11V35C18.1,36.8,19.5,38.2,21.2,38.2z M49.7,6.5
		c1.7,0,3.1,1.4,3.1,3.1c0,1.7-1.4,3.1-3.1,3.1c-1.7,0-3.1-1.4-3.1-3.1C46.6,7.9,48,6.5,49.7,6.5z"/>
	<path fill="#FFFFFF" d="M35.7,69.7c2.5-0.8,4.3-3.2,4.3-5.9v-6.5c0-3.5-2.8-6.3-6.3-6.3h-0.2L22.6,41c0,0-0.1,0-0.1-0.1
		c-0.1,0-0.1-0.1-0.2-0.1c-0.1,0-0.1-0.1-0.2-0.1c-0.1,0-0.1-0.1-0.2-0.1c-0.1,0-0.1,0-0.2-0.1c-0.1,0-0.1,0-0.2,0
		c-0.1,0-0.1,0-0.2,0c-0.1,0-0.1,0-0.2,0c-0.1,0-0.1,0-0.2,0c-0.1,0-0.1,0-0.2,0c-0.1,0-0.1,0-0.2,0c-0.1,0-0.1,0-0.2,0.1
		c-0.1,0-0.1,0.1-0.2,0.1c-0.1,0-0.1,0.1-0.2,0.1c-0.1,0-0.1,0.1-0.2,0.1c0,0-0.1,0-0.1,0.1L8.9,50.9H8.7c-3.5,0-6.3,2.8-6.3,6.3
		v6.5c0,2.8,1.8,5.1,4.3,5.9c2.3,5.7,8,9.7,14.5,9.7S33.3,75.4,35.7,69.7z M21.2,45.3l6.1,5.6H15.1L21.2,45.3z M21.2,73.1
		c-3.8,0-7.1-2.3-8.5-5.5h8.8c1.2,0,2.1-0.9,2.1-2.1c0-1.2-0.9-2.1-2.1-2.1H9c-0.1,0-0.2,0-0.3,0v-6.3h25v6.3c-0.1,0-0.2,0-0.3,0
		h-4.9c-1.2,0-2.1,0.9-2.1,2.1c0,1.2,0.9,2.1,2.1,2.1h1.2C28.3,70.9,25,73.1,21.2,73.1z"/>
	<path fill="#FFFFFF" d="M90.8,50.9L79.9,41c0,0-0.1,0-0.1-0.1c-0.1,0-0.1-0.1-0.2-0.1c-0.1,0-0.1-0.1-0.2-0.1
		c-0.1,0-0.1-0.1-0.2-0.1c-0.1,0-0.1,0-0.2-0.1c-0.1,0-0.1,0-0.2,0c-0.1,0-0.1,0-0.2,0c-0.1,0-0.1,0-0.2,0s-0.1,0-0.2,0
		c-0.1,0-0.1,0-0.2,0c-0.1,0-0.1,0-0.2,0c-0.1,0-0.1,0-0.2,0.1c-0.1,0-0.1,0.1-0.2,0.1c-0.1,0-0.1,0.1-0.2,0.1
		c-0.1,0-0.1,0.1-0.2,0.1c0,0-0.1,0-0.1,0.1l-10.9,9.9h-0.5c-3.5,0-6.3,2.8-6.3,6.3v6.5c0,2.8,1.8,5.1,4.3,5.9
		c2.3,5.7,8,9.7,14.5,9.7s12.1-4,14.5-9.7c2.5-0.8,4.3-3.2,4.3-5.9v-6.5C97,53.8,94.3,51,90.8,50.9z M78.5,45.3l6.1,5.6H72.4
		L78.5,45.3z M78.2,73.1c-3.8,0-7.1-2.3-8.5-5.5h8.8c1.2,0,2.1-0.9,2.1-2.1c0-1.2-0.9-2.1-2.1-2.1H66c-0.1,0-0.2,0-0.3,0v-6.3h25
		v6.3c-0.1,0-0.2,0-0.3,0h-4.9c-1.2,0-2.1,0.9-2.1,2.1c0,1.2,0.9,2.1,2.1,2.1h1.2C85.3,70.9,82,73.1,78.2,73.1z"/>
	<path fill="#FFFFFF" d="M61.9,83.6h-9V33.7c0-1.7-1.4-3.1-3.1-3.1c-1.7,0-3.1,1.4-3.1,3.1v49.9h-8.8c-3.5,0-6.3,2.8-6.3,6.3v3.9
		c0,3.5,2.8,6.3,6.3,6.3h24.1c3.5,0,6.3-2.8,6.3-6.3v-3.9C68.1,86.4,65.3,83.6,61.9,83.6z M61.9,93.7H37.8v-3.9h24.1V93.7z"/>
</g>
</svg>
