<?xml version="1.0" encoding="utf-8"?>
<!-- Generator: Adobe Illustrator 18.1.1, SVG Export Plug-In . SVG Version: 6.00 Build 0)  -->
<svg version="1.1" id="Layer_1" xmlns="http://www.w3.org/2000/svg" xmlns:xlink="http://www.w3.org/1999/xlink" x="0px" y="0px"
	 viewBox="0 0 50 50" enable-background="new 0 0 50 50" xml:space="preserve">
<path fill="#FFFFFF" d="M49.7,46.4l-2.2-12.2c-0.1-0.6-0.4-1.2-0.8-1.6L15.8,1.8c-0.6-0.6-1.4-0.9-2.2-0.9c-0.8,0-1.6,0.3-2.2,0.9
	l-9.9,9.9c-1.2,1.2-1.2,3.1,0,4.3l30.8,30.8c0.4,0.4,1,0.7,1.6,0.8l12.2,2.2c0.2,0,0.4,0.1,0.6,0.1c0.8,0,1.6-0.3,2.2-0.9
	C49.5,48.4,49.9,47.4,49.7,46.4z M36,45l8.7-8.7l0.7,3.6l-5.7,5.7L36,45z M3.7,13.9L6,11.7l21.7,21.7c0.2,0.2,0.5,0.3,0.7,0.3
	c0.3,0,0.5-0.1,0.7-0.3c0.4-0.4,0.4-1,0-1.4L7.4,10.2l2.4-2.4l4.5,4.5c0.2,0.2,0.5,0.3,0.7,0.3c0.3,0,0.5-0.1,0.7-0.3
	c0.4-0.4,0.4-1,0-1.4l-4.5-4.5L13.7,4l30.2,30.2l-2.4,2.4L19.6,14.8c-0.4-0.4-1-0.4-1.4,0c-0.4,0.4-0.4,1,0,1.4L40,38.1l-2.4,2.4
	L33,35.8c-0.4-0.4-1-0.4-1.4,0s-0.4,1,0,1.4l4.6,4.6L34,44.2L3.7,13.9z M42.1,46.1l3.7-3.7l0.8,4.6L42.1,46.1z"/>
</svg>
