<?xml version="1.0" encoding="utf-8"?>
<!-- Generator: Adobe Illustrator 18.1.1, SVG Export Plug-In . SVG Version: 6.00 Build 0)  -->
<svg version="1.1" id="Layer_1" xmlns="http://www.w3.org/2000/svg" xmlns:xlink="http://www.w3.org/1999/xlink" x="0px" y="0px"
	 viewBox="0 0 10 11.3" enable-background="new 0 0 10 11.3" xml:space="preserve">
<g>
	<path fill="#FFFFFF" d="M8.8,4.8L4.9,0.9C4.8,0.8,4.7,0.7,4.5,0.7C4.3,0.7,4.1,0.8,4,0.9L2.3,2.7V2.1c0-0.2-0.1-0.3-0.3-0.3
		C1.8,1.8,1.6,2,1.6,2.1v1.2c0,0,0,0,0,0L0.2,4.8C0.1,4.9,0,5.1,0,5.2v5.4c0,0.4,0.3,0.7,0.7,0.7h7.6C8.7,11.3,9,11,9,10.6V5.2
		C9,5.1,8.9,4.9,8.8,4.8z M7.2,10.6H5.1V6.7h2.1V10.6z M7.6,10.6V6.5c0-0.1-0.1-0.2-0.2-0.2H4.9c-0.1,0-0.2,0.1-0.2,0.2v4.2h-4V5.5
		H6c0.1,0,0.2-0.1,0.2-0.2S6.1,5,6,5H0.9l3.6-3.6L8.1,5H7.3C7.1,5,7,5.1,7,5.2s0.1,0.2,0.2,0.2h1v5.2H7.6z"/>
	<path fill="#FFFFFF" d="M3.7,6.2H1.5c-0.1,0-0.2,0.1-0.2,0.2v2.4c0,0.1,0.1,0.2,0.2,0.2h2.2C3.9,9.1,4,9,4,8.8V6.5
		C4,6.3,3.9,6.2,3.7,6.2z M3.5,8.6H1.7V6.7h1.8V8.6z"/>
	<path fill="#FFFFFF" d="M5.7,9.1c0.1,0,0.2-0.1,0.2-0.2V8.3c0-0.1-0.1-0.2-0.2-0.2S5.5,8.2,5.5,8.3v0.5C5.5,9,5.6,9.1,5.7,9.1z"/>
</g>
</svg>
