<?xml version="1.0" encoding="utf-8"?>
<!-- Generator: Adobe Illustrator 18.1.1, SVG Export Plug-In . SVG Version: 6.00 Build 0)  -->
<svg version="1.1" id="Layer_1" xmlns="http://www.w3.org/2000/svg" xmlns:xlink="http://www.w3.org/1999/xlink" x="0px" y="0px"
	 viewBox="0 0 100 100" enable-background="new 0 0 100 100" xml:space="preserve">
<g>
	<path fill="#FFFFFF" d="M82.3,38.7L46.4,2.6c-1.2-1.2-2.8-1.8-4.4-1.8c-1.7,0-3.2,0.7-4.4,1.8L21.4,19v-4.9c0-1.7-1.4-3.1-3.1-3.1
		c-1.7,0-3.1,1.4-3.1,3.1v11c0,0,0,0.1,0,0.1L1.8,38.7C0.6,39.9,0,41.4,0,43.1v50.6c0,3.4,2.8,6.2,6.2,6.2h71.6
		c3.4,0,6.2-2.8,6.2-6.2V43.1C84.1,41.4,83.4,39.9,82.3,38.7z M67.2,93.6H47.8V56.6h19.4V93.6z M71.3,93.6V54.5
		c0-1.1-0.9-2.1-2.1-2.1H45.7c-1.1,0-2.1,0.9-2.1,2.1v39.1H6.2V45.1h50c1.1,0,2.1-0.9,2.1-2.1S57.3,41,56.2,41H8.3L42,6.9L75.8,41
		h-7.7C67,41,66,41.9,66,43.1s0.9,2.1,2.1,2.1h9.8v48.5H71.3z"/>
	<path fill="#FFFFFF" d="M35.2,52.4H14.3c-1.1,0-2.1,0.9-2.1,2.1v22.3c0,1.1,0.9,2.1,2.1,2.1h20.9c1.1,0,2.1-0.9,2.1-2.1V54.5
		C37.2,53.4,36.3,52.4,35.2,52.4z M33.1,74.8H16.3V56.6h16.8V74.8z"/>
	<path fill="#FFFFFF" d="M53.3,78.9c1.1,0,2.1-0.9,2.1-2.1v-5.1c0-1.1-0.9-2.1-2.1-2.1s-2.1,0.9-2.1,2.1v5.1
		C51.2,78,52.2,78.9,53.3,78.9z"/>
</g>
</svg>
