<?xml version="1.0" encoding="utf-8"?>
<!-- Generator: Adobe Illustrator 18.1.1, SVG Export Plug-In . SVG Version: 6.00 Build 0)  -->
<svg version="1.1" id="Layer_1" xmlns="http://www.w3.org/2000/svg" xmlns:xlink="http://www.w3.org/1999/xlink" x="0px" y="0px"
	 viewBox="0 0 50 50" enable-background="new 0 0 50 50" xml:space="preserve">
<path fill="#FFFFFF" d="M47.5,9.1h-3.8V8l-1.3-0.5C42.1,7.4,36,5,30.5,5C28,5,26,5.5,24.5,6.6C23,5.5,21,5,18.4,5
	C13,5,6.8,7.4,6.6,7.5L5.3,8v1.1H1.5C0.7,9.1,0,9.8,0,10.6v28.3c0,0.8,0.7,1.5,1.5,1.5h46c0.8,0,1.5-0.7,1.5-1.5V10.6
	C49.1,9.8,48.4,9.1,47.5,9.1z M41.7,9.4v22.5c-3.2-1.1-11.6-3.5-16.1-0.9V8.4c1.3-1,3.1-1.3,5-1.3C35.6,7.1,41.7,9.4,41.7,9.4z
	 M39.3,33.3H25.8C28.5,30.8,35,32,39.3,33.3z M18.4,7.1c1.9,0,3.8,0.4,5,1.3V31c-4.5-2.7-13-0.2-16.1,0.9V9.4
	C7.3,9.4,13.3,7.1,18.4,7.1z M23.1,33.3H9.6C14,32,20.5,30.8,23.1,33.3z M46,37.4H3.1V12.2h2.2v21.1v2h2h17.2h17.2h2v-2V12.2H46
	V37.4z"/>
</svg>
